<?xml version="1.0" encoding="UTF-8"?>
<svg id="Layer_1" data-name="Layer 1" xmlns="http://www.w3.org/2000/svg" viewBox="0 0 273.7 257.25">
  <defs>
    <style>
      .cls-1 {
        fill: #fff;
      }
    </style>
  </defs>
  <path class="cls-1" d="M111.05,32.75c.16,1.56.63,3.06.67,4.65,0,.16.05.32.08.47.42,1.71.9,3.41,1.46,5.08.52,1.45,1.09,2.88,1.73,4.28.25.59.56,1.15.89,1.71.51.89,1.14,1.72,1.69,2.57.8,1.23,1.54,2.48,2.45,3.62.53.71,1.13,1.36,1.72,2.01.57.67,1.14,1.33,1.62,2.06.41.66.99,1.21,1.65,1.65.99.73,2.17,1.23,3.26,1.77.06.03.25-.09.38-.14.04-.12.14-.32.1-.36-.26-.28-.58-.51-.84-.79-.87-.89-1.61-1.9-2.39-2.86-.48-.67-1.04-1.29-1.51-1.98l-1.13-1.66c-.34-.57-.68-1.15-.98-1.75-.39-.8-.71-1.64-1.04-2.46-.29-.84-.58-1.69-.86-2.52-.58-1.83-1.17-3.65-1.56-5.52-.12-.57-.24-1.16-.36-1.73-.37-1.51-.7-3.03-.96-4.56-.19-1.07-.31-2.15-.47-3.23-.26-1.77-.48-3.56-.6-5.36-.1-1.7-.08-3.38,0-5.03.02-.4-.11-.8-.05-1.19.18-1.35.52-2.64.91-3.88.29-.93.61-1.83.97-2.71.37-.91.78-1.77,1.27-2.63.79-1.32,1.77-2.57,2.91-3.67.66-.62,1.39-1.16,2.11-1.71.82-.66,1.68-1.28,2.58-1.87.59-.38,1.17-.83,1.81-1.15,1.01-.48,2.07-.87,3.15-1.17.14-.04.26-.16.37-.28.04-.04.08-.22.06-.28-.05-.16-.14-.42-.19-.43-.3-.03-.62-.06-.9.03-2.44.88-4.68,1.69-7.27,2.63-1.18.4-2.33.95-3.37,1.67-2.03,1.39-4,3.03-5.61,5.11-.75.99-1.44,2.05-1.96,3.19-.5,1.07-.81,2.21-1.09,3.35l-.09-.02c-.16.41-.32.82-.42,1.25-.24,1.18-.38,2.37-.47,3.54-.04.52-.04,1.05-.05,1.57,0,1.17.06,2.33.08,3.48.05,1.75.07,3.5.24,5.25Z"/>
  <path class="cls-1" d="M142.41,1.16c2.64.28,5.23,1.32,7.16,3.18.9.86,1.75,1.74,2.57,2.62,1.62,1.69,2.77,3.76,3.55,5.81.36.98.62,1.99.86,2.99.24.94.49,1.87.65,2.84l-.09.02c.02.36-.03.74.02,1.1.11,1,.19,2.01.23,3.04l.06,1.37c.03,1.04.06,2.09-.02,3.15-.13,1.62-.37,3.23-.6,4.83-.21,1.42-.17,2.89-.7,4.26-.05.14-.06.29-.08.43-.24,1.6-.55,3.18-.89,4.76-.32,1.37-.64,2.74-1.03,4.1-.14.57-.33,1.13-.47,1.71-.2.93-.41,1.87-.71,2.78-.44,1.3-.99,2.56-1.57,3.82-.33.78-.65,1.57-1.04,2.32-.37.77-.82,1.49-1.39,2.12-.49.58-.9,1.22-1.24,1.91-.48,1.08-1.01,2.27-1.53,3.43-.03.06.09.26.14.39.12.03.31.14.36.09.29-.3.52-.64.81-.93.96-.93,1.83-1.94,2.7-2.95.54-.71,1.07-1.42,1.57-2.15l1.19-1.78c.37-.61.74-1.21,1.15-1.8.52-.79,1.05-1.59,1.58-2.39.49-.82,1.01-1.63,1.45-2.48.96-1.84,1.82-3.75,2.55-5.7.24-.6.5-1.19.67-1.81.49-1.63.89-3.28,1.22-4.94.25-1.16.46-2.32.61-3.5.24-1.93.34-3.88.44-5.82.08-1.84.15-3.72.03-5.62-.03-.46-.23-.91-.25-1.37-.1-1.58-.25-3.2-.61-4.81-.27-1.2-.67-2.4-1.19-3.54-.53-1.18-1.25-2.29-1.99-3.34-1.2-1.63-2.6-3.07-4.12-4.32-.87-.71-1.72-1.44-2.69-2-1.1-.67-2.28-1.17-3.48-1.6-.79-.28-1.62-.42-2.41-.63-1.25-.3-2.48-.62-3.75-.75-.16-.02-.33.04-.5.11-.06.02-.16.17-.16.24-.01.17,0,.45.04.47.28.15.57.3.87.33Z"/>
  <path class="cls-1" d="M31.88,203.59c.2-.08.29-.33.43-.5-.22-.06-.47-.21-.66-.16-1.2.33-2.42.65-3.66.8-4.04.53-8.18.01-12.06-1.19-2.59-.81-5.07-1.98-7.31-3.49-.91-.6-1.76-1.28-2.59-1.97l-1.19-1.1c-.36-.35-.67-.71-.96-1.11-.57-.79-1.01-1.7-1.17-2.52-.15-.86,0-1.43.42-1.76.48-.5,1.73-.59,3.21-.43,1.44.1,2.88.32,4.3.62,2.86.6,5.68,1.53,8.51,2.53,6.14,2.15,12.45,4.86,19.59,5.6,1.09.13,2.21.15,3.31.18,1.1-.05,2.2-.05,3.3-.18,2.91-.31,5.76-1.07,8.5-2.07,2.73-1.05,5.3-2.47,7.71-4.1,3.33-2.32,6.29-5.15,8.76-8.33,4.1-5.2,6.8-11.47,8.49-17.63,1.66-5.89,2.64-11.88,3.27-17.83.14-1.43.13-2.89.26-4.31l1.31-14.63c.33-3.63.64-7.21,1.16-10.74.52-3.62,1.17-7.21,2.19-10.65,1.61-5.38,3.98-10.46,8.05-13.98,2.31-2.09,5.02-3.78,7.85-5.38,3.26-1.85,6.72-3.53,10.17-5.41,2.28-1.22,4.47-2.66,6.65-4.16,3.38-2.36,6.5-5.4,8.53-9.12.25-.47.42-.98.58-1.46.06-.17.03-.46-.05-.47-.18-.02-.51.01-.61.16-.6.83-1.1,1.73-1.68,2.56-2.37,3.72-5.9,6.59-9.67,8.75-3.8,2.16-7.83,3.77-11.82,5.43-3.74,1.55-7.45,3.33-10.77,5.83-1.59,1.23-3.15,2.56-4.5,4.12-1.38,1.53-2.48,3.27-3.52,5.03-2,3.57-3.45,7.42-4.53,11.33-1.04,3.71-1.78,7.49-2.31,11.29-.48,3.59-.74,7.16-1.03,10.72h-.09c-.16,1.31-.34,2.62-.45,3.93-.3,3.64-.6,7.27-1,10.86-.18,1.59-.36,3.19-.58,4.77-.49,3.56-1.11,7.08-2.04,10.5-1.42,5.25-3.41,10.2-6.37,14.53-2.54,3.89-5.7,7.47-9.61,9.92-.41.23-.8.49-1.19.75-4.31,2.83-9.33,4.49-14.48,4.8-4.45.33-9.02-.62-13.61-1.93l-5.8-1.72c-3.14-.9-6.35-1.73-9.65-2.36-2.38-.42-4.79-.77-7.25-.77-1.19-.02-2.62-.04-4.07.74-.71.4-1.3,1.02-1.69,1.76-.38.75-.5,1.58-.43,2.31.41,3.57,3.02,5.72,5.26,7.43,2.34,1.76,4.9,3.18,7.58,4.35,2.38,1.03,4.98,1.63,7.54,1.77,3.99.24,7.95-.47,11.49-1.9Z"/>
  <path class="cls-1" d="M273.59,190.59c-.16-.83-.64-1.67-1.26-2.25-.83-.84-1.95-1.22-2.88-1.37-.95-.15-1.8-.15-2.58-.12-1.61.02-3.21.16-4.79.39-3.16.45-6.21,1.24-9.18,2.12-6.41,1.91-12.57,4.22-18.7,4.55-.94.07-1.87.02-2.8,0-.93-.1-1.87-.13-2.8-.26-2.46-.3-4.86-.97-7.17-1.84-2.3-.92-4.48-2.14-6.53-3.55-2.84-2.02-5.35-4.51-7.52-7.27-3.63-4.57-6.09-9.88-7.72-15.68-1.57-5.46-2.43-11.17-3.05-16.93-.14-1.4-.44-2.78-.54-4.18-.36-4.83-.53-9.71-.85-14.62-.25-3.68-.55-7.41-1.14-11.14-.6-3.83-1.44-7.65-2.67-11.4-.96-2.94-2.17-5.85-3.78-8.61-1.58-2.72-3.7-5.4-6.15-7.41-2.73-2.36-5.73-4.31-8.8-5.91-3.55-1.83-7.16-3.29-10.62-4.87-2.29-1.02-4.52-2.06-6.62-3.31-3.24-1.99-6.04-4.57-7.99-7.75-.24-.4-.55-.76-.86-1.12-.1-.12-.36-.25-.42-.2-.13.12-.29.38-.22.54.42.87.74,1.86,1.37,2.62,2.55,3.45,6,6.06,9.67,8.26,3.69,2.18,7.6,4.05,11.35,6.23,3.51,2.04,6.96,4.18,10,6.79,1.46,1.29,2.85,2.66,3.97,4.21,1.16,1.53,2.05,3.25,2.87,4.98,1.57,3.52,2.58,7.28,3.28,11.09.68,3.62,1.03,7.3,1.33,11,.27,3.49.52,7.03.73,10.58h-.09c.03,1.33.02,2.65.1,3.98.21,3.67.47,7.36.85,11.06.17,1.65.38,3.29.62,4.94.54,3.7,1.28,7.4,2.21,11.08,1.41,5.56,3.41,11.27,6.72,16.26,2.87,4.5,6.81,8.2,11.04,11.5.45.32.92.6,1.39.89,5.15,3.18,11.19,5.02,17.23,5.16,5.35.2,10.46-1.17,15.17-2.74,1.96-.67,3.89-1.38,5.78-2.12,3.02-1.18,5.98-2.38,9.03-3.2,2.19-.56,4.41-1.01,6.64-1.13,1.12-.11,2.14-.07,2.8.24.64.34,1.04.88,1.03,1.76,0,1.07-.51,2.32-1.21,3.39-.36.55-.74,1.03-1.26,1.52-.48.49-.96,1-1.5,1.43-2.08,1.83-4.49,3.33-7.1,4.33-2.32.89-4.72,1.63-7.16,2.17-3.79.84-7.8,1.11-11.8.43-.22-.03-.45.14-.68.21.17.16.33.42.54.48,1.34.38,2.72.58,4.1.75,4.46.62,9.03.17,13.33-1.13,2.87-.88,5.58-2.23,8.07-3.91,1.01-.66,1.95-1.42,2.88-2.2l1.33-1.24c.46-.45.91-.96,1.28-1.49.76-1.07,1.39-2.25,1.69-3.67.14-.71.2-1.5.02-2.33Z"/>
  <path class="cls-1" d="M240.99,211.36c-2.96-3.04-6.76-5.01-10.68-6.22-5.25-1.61-10.69-1.92-15.95-1.93-5.85,0-11.66.98-17.27,2.48l-2.6.7-2.53.85c-4.47,1.54-8.76,3.49-12.96,5.51-2.93,1.42-5.82,2.89-8.67,4.41-4.69,2.52-9.27,5.12-13.93,7.52-4.41,2.3-8.89,4.36-13.44,6.17-1.1.42-2.14,1.02-3.26,1.4-3.87,1.32-7.81,2.4-11.76,3.31-1.02.24-2.05.44-3.07.66-4.93-2.47-9.73-5.12-14.39-8.08-2.44-1.54-4.93-3.03-7.5-4.38-5.01-2.64-10.04-5.29-15.27-7.57-2.47-1.1-4.99-2.12-7.55-3.04-2.43-.83-4.91-1.54-7.4-2.18l.02-.09c-.91-.29-1.82-.61-2.76-.83-2.58-.64-5.2-1.12-7.83-1.55-1.17-.19-2.35-.31-3.53-.47-2.66-.28-5.32-.48-7.99-.6-4.08-.21-8.19-.23-12.29.11-3.61.33-7.33.94-11.26,2.4-.4.15-.78.36-1.15.59-2.08,1.19-3.93,2.87-5.27,4.87-1.33,2.01-2.17,4.3-2.52,6.63-.29,2.04-.18,4.11.3,6.09.48,2.01,1.34,3.82,2.35,5.45.85,1.36,1.85,2.61,2.94,3.72,1.77,1.76,3.71,3.23,5.7,4.57,2.84,1.95,5.82,3.61,8.87,5.04,3.75,1.72,7.63,2.97,11.46,4.42,1.7.65,3.49,1.11,5.28,1.39,2.79.44,5.6.6,8.39.66.16,0,.31-.19.46-.3-.12-.14-.23-.37-.37-.4-.91-.16-1.83-.26-2.73-.46-2.93-.62-5.81-1.45-8.64-2.38-1.89-.63-3.78-1.26-5.62-2.02-2.96-1.2-5.87-2.55-8.62-4.18-3.64-2.18-7.04-4.75-9.79-7.72-2.98-3.19-5.22-7.05-5.1-10.92.02-1.2.25-2.37.6-3.48.88-3,3.07-5.37,5.93-6.6,2.04-.88,4.48-1.29,7.03-1.62,4.23-.54,8.52-.78,12.81-.67,4.07.1,8.14.53,12.18,1.14.97.16,1.98.14,2.94.34,3.34.64,6.63,1.53,9.9,2.46,2.46.69,4.89,1.46,7.32,2.23,2.49.82,5,1.62,7.47,2.55,3.88,1.43,7.72,2.99,11.52,4.68,2.16.97,4.27,2.04,6.42,3.04,2.47,1.15,4.95,2.3,7.44,3.45,1.63.76,3.3,1.44,4.92,2.24,1.22.59,2.43,1.21,3.64,1.82-1.37.26-2.75.51-4.12.73-3.07.48-6.16.85-9.25,1.02-4.68.3-9.48-.47-14.39-1.38-2.79-.52-5.61-1.17-8.52-1.59-1.67-.24-3.37-.43-5.09-.53-.89-.05-1.86-.07-2.9.08-1.03.14-2.17.52-3.07,1.08-1.21.72-2.1,1.66-2.86,2.57-.75.92-1.4,1.82-2.05,2.76-2.02,2.92-3.63,6.11-4.69,9.47-.13.42-.18.87-.21,1.3-.01.15.08.4.16.4.18,0,.48-.06.54-.2.33-.8.71-1.59.99-2.4,1.22-3.52,3.11-6.83,5.57-9.65,1.21-1.39,2.67-2.81,4.59-3.32,1.92-.49,3.79-.05,5.58.29,3.39.68,6.71,1.61,10.08,2.43,3.29.79,6.59,1.63,10,2.18,3.41.6,6.96.68,10.37.55,3.27-.11,6.54-.38,9.78-.89,3.06-.48,6.07-1.21,9.06-1.99l.02.09c1.12-.24,2.25-.48,3.36-.8,3.06-.89,6.05-1.93,9.04-3.1,1.34-.48,2.63-1.08,3.92-1.65,1.47-.63,2.91-1.3,4.32-2.01,1.43-.69,2.86-1.38,4.26-2.09,4.33-2.13,8.58-4.34,12.8-6.55,3.75-1.97,7.36-4.18,11.24-5.79.39-.16.77-.38,1.15-.57,4.2-2.08,8.46-4,12.82-5.59,3.81-1.31,7.67-2.52,11.62-3.19l2.47-.46,2.48-.3c2.63-.38,5.4-.62,8.09-.66,3.88-.04,7.75.38,11.37,1.56,2.2.72,4.32,1.74,6.2,3.13,1.88,1.38,3.47,3.2,4.43,5.33.86,1.87,1.36,3.91,1.49,6,.2,3.21-.62,6.81-3.23,9.4-.14.14-.13.41-.2.63.22-.03.5.01.67-.11,1.02-.81,1.85-1.82,2.52-2.9,2.2-3.51,2.7-7.83,1.57-11.73-.77-2.63-2.27-4.9-4.1-6.79Z"/>
  <path class="cls-1" d="M235.22,238.78c-.6.36-1.21.71-1.72,1.16-4.6,3.81-10.02,6.61-15.75,8.18-2.69.72-5.38,1.35-8.09,1.95-5.28,1.15-10.66,1.67-16.02,1.89-2.55.12-5.09.14-7.64.18-2.4.05-4.81.13-7.23.14v-.09c-.9-.05-1.79-.12-2.69-.14l-7.47-.09-3.33-.04c-2.5-.03-5-.04-7.51-.11l-11.51-.39c-3.42-.08-6.84.13-10.25-.16-.35-.03-.7-.02-1.05-.01l-11.52.19-10.04.33c-1.39.05-2.79.12-4.18.22-2.22.18-4.45.37-6.67.55-3.2.19-6.4.38-9.6.57-3.89.28-7.77.76-11.69.73-1.74-.02-3.49.12-5.21.37-2.68.38-5.34.93-8,1.43-.15.03-.25.25-.38.39.14.11.29.31.43.31l2.7-.14,8.78-.16,5.85-.16c3.13-.06,6.27-.17,9.4-.13,4.17.06,8.34.26,12.51.38l13.57.37,4.17.14,11.06.14,7.72.13,12.73.11,12.12.23c.98,0,1.96-.15,2.94-.12,3.37.06,6.75.14,10.14.08,2.54-.05,5.09-.16,7.63-.39,2.61-.23,5.22-.56,7.82-.97,4.09-.63,8.14-1.49,12.14-2.59,2.28-.6,4.55-1.27,6.77-2.08,2.55-.96,5.03-2.1,7.44-3.37,1.58-.85,3.08-1.83,4.59-2.78,2.37-1.47,4.65-3.09,6.79-4.89.27-.23.48-.52.69-.8.07-.1.1-.33.04-.37-.14-.11-.4-.24-.51-.18Z"/>
  <path class="cls-1" d="M107.46,181.62l-.63,2.03-.75,2.04-.88,1.99c-.99,2.04-2.3,4.01-3.74,5.95-.82,1.1-1.75,2.15-2.61,3.28-.99,1.3-1.95,2.67-2.86,4.08-.6.93-1.1,1.94-1.66,2.91-.88,1.51-1.71,3.07-2.34,4.73-.08.21-.08.45-.08.68,0,.08.11.24.18.26.17.04.45.08.49.02.26-.36.52-.71.67-1.11,1.37-3.47,3.67-6.46,6.43-8.89,1.29-1.15,2.56-2.31,3.75-3.58,2.29-2.46,4.67-5.01,6.45-8.1.84-1.45,1.61-2.97,2.18-4.56.53-1.5.9-3.06,1.18-4.62l.09.02c.17-.57.36-1.14.43-1.73.25-1.62.36-3.25.42-4.88v-2.17c-.08-1.62-.21-3.23-.35-4.83-.23-2.44-.46-4.89-.92-7.28-.38-2.14-1.14-4.18-1.44-6.33-.03-.22-.11-.43-.17-.64-.71-2.32-1.49-4.57-2.3-6.82-.73-1.93-1.45-3.87-2.18-5.8-.31-.8-.62-1.6-.96-2.38-.55-1.26-1.16-2.49-1.66-3.76-.72-1.83-1.32-3.69-1.95-5.54-.76-2.25-1.66-4.5-1.88-6.89-.13-1.05-.32-2.11-.65-3.13-.47-1.61-1.03-3.22-1.48-4.9-.03-.09-.25-.16-.38-.24-.11.09-.32.18-.32.27.01.57.1,1.14.11,1.71.06,1.85.19,3.7.41,5.54.18,1.22.38,2.43.63,3.63.35,1.94.85,3.84,1.24,5.76.53,2.56,1.01,5.13,1.63,7.65.67,2.74,1.43,5.44,2.14,8.13.22.83.41,1.67.64,2.48.64,2.17,1.26,4.33,1.82,6.47.38,1.5.71,3.01,1.05,4.52.54,2.48,1.06,4.96,1.35,7.46.26,2.37.38,4.75.33,7.1,0,.57.11,1.14.07,1.7-.14,1.95-.54,3.84-.96,5.7l-.54,2.07Z"/>
  <path class="cls-1" d="M171.74,122.02c-.34,1.86-.74,3.73-1.29,5.55-.75,2.43-1.7,4.8-2.61,7.19-.98,2.61-1.96,5.22-2.95,7.83-.3.81-.64,1.61-.92,2.43-.73,2.18-1.41,4.39-2.05,6.64-.43,1.57-.86,3.15-1.2,4.75-.54,2.65-.95,5.33-1.24,8.04-.25,2.57-.47,5.17-.4,7.8,0,.63.22,1.26.23,1.89.05,2.17.24,4.37.62,6.55.17.81.35,1.63.55,2.44l.76,2.4,1.02,2.38,1.22,2.29c1.36,2.36,3,4.44,4.63,6.41.93,1.12,1.82,2.25,2.77,3.3,1.09,1.17,2.19,2.34,3.29,3.52.7.77,1.47,1.49,2.1,2.3,1,1.26,1.85,2.62,2.59,4.02.09.18.26.32.43.46.06.05.25.07.31.04.15-.09.37-.25.35-.32-.09-.41-.18-.84-.38-1.2-1.85-3.12-4.03-5.95-5.92-9.13-.88-1.49-1.81-2.94-2.79-4.35-1.89-2.76-3.45-5.69-4.42-8.71-.47-1.44-.82-2.9-1.14-4.36-.29-1.38-.61-2.75-.78-4.16h.09c-.01-.54-.03-1.08-.04-1.6-.13-1.45-.19-2.91-.21-4.37v-1.96c.03-1.47.07-2.95.25-4.43.29-2.25.72-4.49,1.23-6.72.42-1.99.67-4.04,1.45-5.96.08-.19.12-.4.17-.6.53-2.24,1.17-4.5,1.78-6.76.53-1.99,1.06-3.98,1.59-5.97.22-.83.42-1.67.59-2.52.25-1.36.49-2.75.74-4.11.4-1.96.84-3.91,1.15-5.89.36-2.42.48-4.85.96-7.24.24-1.06.25-2.16.18-3.25-.15-1.7-.52-3.37-.92-5-.02-.09-.24-.16-.37-.24-.12.08-.33.17-.33.25-.02.54.04,1.08.01,1.62-.09,1.76-.32,3.5-.56,5.25-.2,1.16-.31,2.33-.55,3.49Z"/>
</svg>